<mxfile host="drawio-plugin" modified="2022-04-23T11:09:54.559Z" agent="5.0 (Windows NT 6.2; Win64; x64) AppleWebKit/537.36 (KHTML, like Gecko) Chrome/89.0.4389.114 Safari/537.36" etag="Ia9-H8P6Ynq6gQ1UrPx3" version="15.5.4" type="embed"><diagram id="FK52EOADnNmLaAAOMYU-" name="‫עמוד-1‬"><mxGraphModel dx="1653" dy="985" grid="1" gridSize="10" guides="1" tooltips="1" connect="1" arrows="1" fold="1" page="1" pageScale="1" pageWidth="827" pageHeight="1169" math="0" shadow="0"><root><mxCell id="0"/><mxCell id="1" parent="0"/><mxCell id="Ter9rQgFG6V6oOjLmMLM-363" value="OneWayChannel" style="swimlane;fontStyle=1;align=center;verticalAlign=top;childLayout=stackLayout;horizontal=1;startSize=26;horizontalStack=0;resizeParent=1;resizeParentMax=0;resizeLast=0;collapsible=1;marginBottom=0;" parent="1" vertex="1"><mxGeometry x="469" y="120" width="190" height="164" as="geometry"/></mxCell><mxCell id="Ter9rQgFG6V6oOjLmMLM-364" value="- queue: multiprocessing.Queue" style="text;strokeColor=none;fillColor=none;align=left;verticalAlign=top;spacingLeft=4;spacingRight=4;overflow=hidden;rotatable=0;points=[[0,0.5],[1,0.5]];portConstraint=eastwest;" parent="Ter9rQgFG6V6oOjLmMLM-363" vertex="1"><mxGeometry y="26" width="190" height="26" as="geometry"/></mxCell><mxCell id="Ter9rQgFG6V6oOjLmMLM-365" value="" style="line;strokeWidth=1;fillColor=none;align=left;verticalAlign=middle;spacingTop=-1;spacingLeft=3;spacingRight=3;rotatable=0;labelPosition=right;points=[];portConstraint=eastwest;" parent="Ter9rQgFG6V6oOjLmMLM-363" vertex="1"><mxGeometry y="52" width="190" height="8" as="geometry"/></mxCell><mxCell id="Ter9rQgFG6V6oOjLmMLM-367" value="+ send(bytes): void" style="text;strokeColor=none;fillColor=none;align=left;verticalAlign=top;spacingLeft=4;spacingRight=4;overflow=hidden;rotatable=0;points=[[0,0.5],[1,0.5]];portConstraint=eastwest;" parent="Ter9rQgFG6V6oOjLmMLM-363" vertex="1"><mxGeometry y="60" width="190" height="26" as="geometry"/></mxCell><mxCell id="Ter9rQgFG6V6oOjLmMLM-366" value="+ recv(void): Generic Object" style="text;strokeColor=none;fillColor=none;align=left;verticalAlign=top;spacingLeft=4;spacingRight=4;overflow=hidden;rotatable=0;points=[[0,0.5],[1,0.5]];portConstraint=eastwest;" parent="Ter9rQgFG6V6oOjLmMLM-363" vertex="1"><mxGeometry y="86" width="190" height="26" as="geometry"/></mxCell><mxCell id="Ter9rQgFG6V6oOjLmMLM-369" value="+ writeable(void): boolean" style="text;strokeColor=none;fillColor=none;align=left;verticalAlign=top;spacingLeft=4;spacingRight=4;overflow=hidden;rotatable=0;points=[[0,0.5],[1,0.5]];portConstraint=eastwest;" parent="Ter9rQgFG6V6oOjLmMLM-363" vertex="1"><mxGeometry y="112" width="190" height="26" as="geometry"/></mxCell><mxCell id="Ter9rQgFG6V6oOjLmMLM-368" value="+ readable(void): boolean" style="text;strokeColor=none;fillColor=none;align=left;verticalAlign=top;spacingLeft=4;spacingRight=4;overflow=hidden;rotatable=0;points=[[0,0.5],[1,0.5]];portConstraint=eastwest;" parent="Ter9rQgFG6V6oOjLmMLM-363" vertex="1"><mxGeometry y="138" width="190" height="26" as="geometry"/></mxCell><mxCell id="Ter9rQgFG6V6oOjLmMLM-370" value="TwoWayChannel" style="swimlane;fontStyle=1;align=center;verticalAlign=top;childLayout=stackLayout;horizontal=1;startSize=26;horizontalStack=0;resizeParent=1;resizeParentMax=0;resizeLast=0;collapsible=1;marginBottom=0;" parent="1" vertex="1"><mxGeometry x="739" y="122" width="190" height="190" as="geometry"/></mxCell><mxCell id="Ter9rQgFG6V6oOjLmMLM-371" value="- in_channel: OneWayChannel" style="text;strokeColor=none;fillColor=none;align=left;verticalAlign=top;spacingLeft=4;spacingRight=4;overflow=hidden;rotatable=0;points=[[0,0.5],[1,0.5]];portConstraint=eastwest;" parent="Ter9rQgFG6V6oOjLmMLM-370" vertex="1"><mxGeometry y="26" width="190" height="26" as="geometry"/></mxCell><mxCell id="Ter9rQgFG6V6oOjLmMLM-377" value="- out_channel: OneWayChannel" style="text;strokeColor=none;fillColor=none;align=left;verticalAlign=top;spacingLeft=4;spacingRight=4;overflow=hidden;rotatable=0;points=[[0,0.5],[1,0.5]];portConstraint=eastwest;" parent="Ter9rQgFG6V6oOjLmMLM-370" vertex="1"><mxGeometry y="52" width="190" height="26" as="geometry"/></mxCell><mxCell id="Ter9rQgFG6V6oOjLmMLM-372" value="" style="line;strokeWidth=1;fillColor=none;align=left;verticalAlign=middle;spacingTop=-1;spacingLeft=3;spacingRight=3;rotatable=0;labelPosition=right;points=[];portConstraint=eastwest;" parent="Ter9rQgFG6V6oOjLmMLM-370" vertex="1"><mxGeometry y="78" width="190" height="8" as="geometry"/></mxCell><mxCell id="Ter9rQgFG6V6oOjLmMLM-373" value="+ send(bytes): void" style="text;strokeColor=none;fillColor=none;align=left;verticalAlign=top;spacingLeft=4;spacingRight=4;overflow=hidden;rotatable=0;points=[[0,0.5],[1,0.5]];portConstraint=eastwest;" parent="Ter9rQgFG6V6oOjLmMLM-370" vertex="1"><mxGeometry y="86" width="190" height="26" as="geometry"/></mxCell><mxCell id="Ter9rQgFG6V6oOjLmMLM-374" value="+ recv(void): Generic Object" style="text;strokeColor=none;fillColor=none;align=left;verticalAlign=top;spacingLeft=4;spacingRight=4;overflow=hidden;rotatable=0;points=[[0,0.5],[1,0.5]];portConstraint=eastwest;" parent="Ter9rQgFG6V6oOjLmMLM-370" vertex="1"><mxGeometry y="112" width="190" height="26" as="geometry"/></mxCell><mxCell id="Ter9rQgFG6V6oOjLmMLM-375" value="+ writeable(void): boolean" style="text;strokeColor=none;fillColor=none;align=left;verticalAlign=top;spacingLeft=4;spacingRight=4;overflow=hidden;rotatable=0;points=[[0,0.5],[1,0.5]];portConstraint=eastwest;" parent="Ter9rQgFG6V6oOjLmMLM-370" vertex="1"><mxGeometry y="138" width="190" height="26" as="geometry"/></mxCell><mxCell id="Ter9rQgFG6V6oOjLmMLM-376" value="+ readable(void): boolean" style="text;strokeColor=none;fillColor=none;align=left;verticalAlign=top;spacingLeft=4;spacingRight=4;overflow=hidden;rotatable=0;points=[[0,0.5],[1,0.5]];portConstraint=eastwest;" parent="Ter9rQgFG6V6oOjLmMLM-370" vertex="1"><mxGeometry y="164" width="190" height="26" as="geometry"/></mxCell><mxCell id="Ter9rQgFG6V6oOjLmMLM-378" value="" style="html=1;endArrow=diamondThin;endFill=0;edgeStyle=elbowEdgeStyle;elbow=vertical;endSize=10;exitX=1.027;exitY=0.074;exitDx=0;exitDy=0;exitPerimeter=0;entryX=-0.003;entryY=0.052;entryDx=0;entryDy=0;entryPerimeter=0;" parent="1" source="Ter9rQgFG6V6oOjLmMLM-363" target="Ter9rQgFG6V6oOjLmMLM-370" edge="1"><mxGeometry width="160" relative="1" as="geometry"><mxPoint x="699" y="212" as="sourcePoint"/><mxPoint x="859" y="212" as="targetPoint"/><Array as="points"><mxPoint x="729" y="132"/><mxPoint x="729" y="132"/><mxPoint x="639" y="134"/></Array></mxGeometry></mxCell><mxCell id="2" value="Communication : Process" style="swimlane;fontStyle=1;align=center;verticalAlign=top;childLayout=stackLayout;horizontal=1;startSize=26;horizontalStack=0;resizeParent=1;resizeParentMax=0;resizeLast=0;collapsible=1;marginBottom=0;" parent="1" vertex="1"><mxGeometry x="849" y="437" width="230" height="138" as="geometry"/></mxCell><mxCell id="3" value="- _output_queue: OneWayChannel" style="text;strokeColor=none;fillColor=none;align=left;verticalAlign=top;spacingLeft=4;spacingRight=4;overflow=hidden;rotatable=0;points=[[0,0.5],[1,0.5]];portConstraint=eastwest;" parent="2" vertex="1"><mxGeometry y="26" width="230" height="26" as="geometry"/></mxCell><mxCell id="27" value="- _channel: TwoWayChannel" style="text;strokeColor=none;fillColor=none;align=left;verticalAlign=top;spacingLeft=4;spacingRight=4;overflow=hidden;rotatable=0;points=[[0,0.5],[1,0.5]];portConstraint=eastwest;" parent="2" vertex="1"><mxGeometry y="52" width="230" height="26" as="geometry"/></mxCell><mxCell id="28" value="- _operation_code: multiprocessing.Value" style="text;strokeColor=none;fillColor=none;align=left;verticalAlign=top;spacingLeft=4;spacingRight=4;overflow=hidden;rotatable=0;points=[[0,0.5],[1,0.5]];portConstraint=eastwest;" parent="2" vertex="1"><mxGeometry y="78" width="230" height="26" as="geometry"/></mxCell><mxCell id="4" value="" style="line;strokeWidth=1;fillColor=none;align=left;verticalAlign=middle;spacingTop=-1;spacingLeft=3;spacingRight=3;rotatable=0;labelPosition=right;points=[];portConstraint=eastwest;" parent="2" vertex="1"><mxGeometry y="104" width="230" height="8" as="geometry"/></mxCell><mxCell id="5" value="+ start(void): void" style="text;strokeColor=none;fillColor=none;align=left;verticalAlign=top;spacingLeft=4;spacingRight=4;overflow=hidden;rotatable=0;points=[[0,0.5],[1,0.5]];portConstraint=eastwest;" parent="2" vertex="1"><mxGeometry y="112" width="230" height="26" as="geometry"/></mxCell><mxCell id="9" value="Input : Process" style="swimlane;fontStyle=1;align=center;verticalAlign=top;childLayout=stackLayout;horizontal=1;startSize=26;horizontalStack=0;resizeParent=1;resizeParentMax=0;resizeLast=0;collapsible=1;marginBottom=0;" parent="1" vertex="1"><mxGeometry x="310" y="437" width="231" height="112" as="geometry"/></mxCell><mxCell id="10" value="- _input_queue: OneWayChannel" style="text;strokeColor=none;fillColor=none;align=left;verticalAlign=top;spacingLeft=4;spacingRight=4;overflow=hidden;rotatable=0;points=[[0,0.5],[1,0.5]];portConstraint=eastwest;" parent="9" vertex="1"><mxGeometry y="26" width="231" height="26" as="geometry"/></mxCell><mxCell id="51" value="- _operation_code: multiprocessing.Value" style="text;strokeColor=none;fillColor=none;align=left;verticalAlign=top;spacingLeft=4;spacingRight=4;overflow=hidden;rotatable=0;points=[[0,0.5],[1,0.5]];portConstraint=eastwest;" vertex="1" parent="9"><mxGeometry y="52" width="231" height="26" as="geometry"/></mxCell><mxCell id="12" value="" style="line;strokeWidth=1;fillColor=none;align=left;verticalAlign=middle;spacingTop=-1;spacingLeft=3;spacingRight=3;rotatable=0;labelPosition=right;points=[];portConstraint=eastwest;" parent="9" vertex="1"><mxGeometry y="78" width="231" height="8" as="geometry"/></mxCell><mxCell id="50" value="+ start(void): void" style="text;strokeColor=none;fillColor=none;align=left;verticalAlign=top;spacingLeft=4;spacingRight=4;overflow=hidden;rotatable=0;points=[[0,0.5],[1,0.5]];portConstraint=eastwest;" vertex="1" parent="9"><mxGeometry y="86" width="231" height="26" as="geometry"/></mxCell><mxCell id="20" value="Logic : Process" style="swimlane;fontStyle=1;align=center;verticalAlign=top;childLayout=stackLayout;horizontal=1;startSize=26;horizontalStack=0;resizeParent=1;resizeParentMax=0;resizeLast=0;collapsible=1;marginBottom=0;" parent="1" vertex="1"><mxGeometry x="568" y="430" width="250" height="242" as="geometry"/></mxCell><mxCell id="31" value="- _client_handle_channel: TwoWayChannel" style="text;strokeColor=none;fillColor=none;align=left;verticalAlign=top;spacingLeft=4;spacingRight=4;overflow=hidden;rotatable=0;points=[[0,0.5],[1,0.5]];portConstraint=eastwest;" parent="20" vertex="1"><mxGeometry y="26" width="250" height="26" as="geometry"/></mxCell><mxCell id="33" value="- _input_queue: OneWayChannel" style="text;strokeColor=none;fillColor=none;align=left;verticalAlign=top;spacingLeft=4;spacingRight=4;overflow=hidden;rotatable=0;points=[[0,0.5],[1,0.5]];portConstraint=eastwest;" parent="20" vertex="1"><mxGeometry y="52" width="250" height="26" as="geometry"/></mxCell><mxCell id="32" value="- _output_queue: OneWayChannel" style="text;strokeColor=none;fillColor=none;align=left;verticalAlign=top;spacingLeft=4;spacingRight=4;overflow=hidden;rotatable=0;points=[[0,0.5],[1,0.5]];portConstraint=eastwest;" parent="20" vertex="1"><mxGeometry y="78" width="250" height="26" as="geometry"/></mxCell><mxCell id="30" value="- _operation_code: multiprocessing.Value" style="text;strokeColor=none;fillColor=none;align=left;verticalAlign=top;spacingLeft=4;spacingRight=4;overflow=hidden;rotatable=0;points=[[0,0.5],[1,0.5]];portConstraint=eastwest;" parent="20" vertex="1"><mxGeometry y="104" width="250" height="26" as="geometry"/></mxCell><mxCell id="34" value="- _main_display: Display" style="text;strokeColor=none;fillColor=none;align=left;verticalAlign=top;spacingLeft=4;spacingRight=4;overflow=hidden;rotatable=0;points=[[0,0.5],[1,0.5]];portConstraint=eastwest;" parent="20" vertex="1"><mxGeometry y="130" width="250" height="26" as="geometry"/></mxCell><mxCell id="35" value="- _displays: dict[Orientation : Display]" style="text;strokeColor=none;fillColor=none;align=left;verticalAlign=top;spacingLeft=4;spacingRight=4;overflow=hidden;rotatable=0;points=[[0,0.5],[1,0.5]];portConstraint=eastwest;" vertex="1" parent="20"><mxGeometry y="156" width="250" height="26" as="geometry"/></mxCell><mxCell id="36" value="- _passcode: string" style="text;strokeColor=none;fillColor=none;align=left;verticalAlign=top;spacingLeft=4;spacingRight=4;overflow=hidden;rotatable=0;points=[[0,0.5],[1,0.5]];portConstraint=eastwest;" vertex="1" parent="20"><mxGeometry y="182" width="250" height="26" as="geometry"/></mxCell><mxCell id="22" value="" style="line;strokeWidth=1;fillColor=none;align=left;verticalAlign=middle;spacingTop=-1;spacingLeft=3;spacingRight=3;rotatable=0;labelPosition=right;points=[];portConstraint=eastwest;" parent="20" vertex="1"><mxGeometry y="208" width="250" height="8" as="geometry"/></mxCell><mxCell id="29" value="+ start(void): void" style="text;strokeColor=none;fillColor=none;align=left;verticalAlign=top;spacingLeft=4;spacingRight=4;overflow=hidden;rotatable=0;points=[[0,0.5],[1,0.5]];portConstraint=eastwest;" parent="20" vertex="1"><mxGeometry y="216" width="250" height="26" as="geometry"/></mxCell><mxCell id="37" value="" style="html=1;endArrow=diamondThin;endFill=0;edgeStyle=elbowEdgeStyle;elbow=vertical;endSize=10;entryX=0.25;entryY=0;entryDx=0;entryDy=0;" edge="1" parent="1" source="Ter9rQgFG6V6oOjLmMLM-368" target="20"><mxGeometry width="160" relative="1" as="geometry"><mxPoint x="634.1300000000001" y="351.13599999999997" as="sourcePoint"/><mxPoint x="748.4300000000001" y="350.8800000000001" as="targetPoint"/><Array as="points"><mxPoint x="609" y="400"/><mxPoint x="592" y="350"/><mxPoint x="539" y="410"/><mxPoint x="524" y="400"/><mxPoint x="739" y="351"/><mxPoint x="739" y="351"/><mxPoint x="649" y="353"/></Array></mxGeometry></mxCell><mxCell id="39" value="" style="html=1;endArrow=diamondThin;endFill=0;edgeStyle=elbowEdgeStyle;elbow=vertical;endSize=10;entryX=0.5;entryY=0;entryDx=0;entryDy=0;" edge="1" parent="1" source="Ter9rQgFG6V6oOjLmMLM-368" target="9"><mxGeometry width="160" relative="1" as="geometry"><mxPoint x="359.0000000000001" y="361.13599999999997" as="sourcePoint"/><mxPoint x="473.30000000000007" y="360.88" as="targetPoint"/><Array as="points"><mxPoint x="463.87" y="361"/><mxPoint x="463.87" y="361"/><mxPoint x="373.87" y="363"/></Array></mxGeometry></mxCell><mxCell id="41" value="" style="html=1;endArrow=diamondThin;endFill=0;edgeStyle=elbowEdgeStyle;elbow=vertical;endSize=10;exitX=1.007;exitY=1.097;exitDx=0;exitDy=0;exitPerimeter=0;" edge="1" parent="1" source="Ter9rQgFG6V6oOjLmMLM-368" target="2"><mxGeometry width="160" relative="1" as="geometry"><mxPoint x="654.1300000000001" y="371.13599999999997" as="sourcePoint"/><mxPoint x="768.4300000000001" y="370.88" as="targetPoint"/><Array as="points"><mxPoint x="759" y="371"/><mxPoint x="759" y="371"/><mxPoint x="669" y="373"/></Array></mxGeometry></mxCell><mxCell id="43" value="" style="html=1;endArrow=diamondThin;endFill=0;edgeStyle=elbowEdgeStyle;elbow=vertical;endSize=10;exitX=0.49;exitY=1.081;exitDx=0;exitDy=0;exitPerimeter=0;entryX=0.673;entryY=-0.006;entryDx=0;entryDy=0;entryPerimeter=0;" edge="1" parent="1" source="Ter9rQgFG6V6oOjLmMLM-376" target="2"><mxGeometry width="160" relative="1" as="geometry"><mxPoint x="630.3299999999999" y="296.52199999999993" as="sourcePoint"/><mxPoint x="974" y="447" as="targetPoint"/><Array as="points"><mxPoint x="1029" y="340"/><mxPoint x="1039" y="360"/><mxPoint x="769" y="381"/><mxPoint x="769" y="381"/><mxPoint x="679" y="383"/></Array></mxGeometry></mxCell><mxCell id="45" value="" style="html=1;endArrow=diamondThin;endFill=0;edgeStyle=elbowEdgeStyle;elbow=vertical;endSize=10;exitX=1.027;exitY=0.074;exitDx=0;exitDy=0;exitPerimeter=0;entryX=-0.003;entryY=0.052;entryDx=0;entryDy=0;entryPerimeter=0;" edge="1" parent="1"><mxGeometry width="160" relative="1" as="geometry"><mxPoint x="845.7" y="30.255999999999972" as="sourcePoint"/><mxPoint x="960" y="30.000000000000114" as="targetPoint"/><Array as="points"><mxPoint x="950.5699999999999" y="30.120000000000005"/><mxPoint x="950.5699999999999" y="30.120000000000005"/><mxPoint x="860.5699999999999" y="32.120000000000005"/></Array></mxGeometry></mxCell><mxCell id="46" value="יחס הכלה חלש&lt;br&gt;&amp;nbsp;(aggregation)" style="edgeLabel;html=1;align=center;verticalAlign=middle;resizable=0;points=[];" vertex="1" connectable="0" parent="45"><mxGeometry x="-0.325" y="-2" relative="1" as="geometry"><mxPoint x="10" as="offset"/></mxGeometry></mxCell><mxCell id="47" value="" style="html=1;endArrow=diamondThin;endFill=0;edgeStyle=elbowEdgeStyle;elbow=vertical;endSize=10;" edge="1" parent="1" source="Ter9rQgFG6V6oOjLmMLM-376" target="20"><mxGeometry width="160" relative="1" as="geometry"><mxPoint x="559" y="312" as="sourcePoint"/><mxPoint x="730.6899999999999" y="434.062" as="targetPoint"/><Array as="points"><mxPoint x="755.9" y="337.89"/><mxPoint x="765.9" y="357.89"/><mxPoint x="495.9" y="378.89"/><mxPoint x="495.9" y="378.89"/><mxPoint x="405.9" y="380.89"/></Array></mxGeometry></mxCell><mxCell id="52" value="Point" style="swimlane;fontStyle=1;align=center;verticalAlign=top;childLayout=stackLayout;horizontal=1;startSize=26;horizontalStack=0;resizeParent=1;resizeParentMax=0;resizeLast=0;collapsible=1;marginBottom=0;" vertex="1" parent="1"><mxGeometry x="360" y="710" width="231" height="190" as="geometry"/></mxCell><mxCell id="53" value="+ x: int" style="text;strokeColor=none;fillColor=none;align=left;verticalAlign=top;spacingLeft=4;spacingRight=4;overflow=hidden;rotatable=0;points=[[0,0.5],[1,0.5]];portConstraint=eastwest;" vertex="1" parent="52"><mxGeometry y="26" width="231" height="26" as="geometry"/></mxCell><mxCell id="54" value="+ y: int" style="text;strokeColor=none;fillColor=none;align=left;verticalAlign=top;spacingLeft=4;spacingRight=4;overflow=hidden;rotatable=0;points=[[0,0.5],[1,0.5]];portConstraint=eastwest;" vertex="1" parent="52"><mxGeometry y="52" width="231" height="26" as="geometry"/></mxCell><mxCell id="55" value="" style="line;strokeWidth=1;fillColor=none;align=left;verticalAlign=middle;spacingTop=-1;spacingLeft=3;spacingRight=3;rotatable=0;labelPosition=right;points=[];portConstraint=eastwest;" vertex="1" parent="52"><mxGeometry y="78" width="231" height="8" as="geometry"/></mxCell><mxCell id="58" value="+ get_position(void): int[2]" style="text;strokeColor=none;fillColor=none;align=left;verticalAlign=top;spacingLeft=4;spacingRight=4;overflow=hidden;rotatable=0;points=[[0,0.5],[1,0.5]];portConstraint=eastwest;" vertex="1" parent="52"><mxGeometry y="86" width="231" height="26" as="geometry"/></mxCell><mxCell id="56" value="+ operator override ==(Point): boolean" style="text;strokeColor=none;fillColor=none;align=left;verticalAlign=top;spacingLeft=4;spacingRight=4;overflow=hidden;rotatable=0;points=[[0,0.5],[1,0.5]];portConstraint=eastwest;" vertex="1" parent="52"><mxGeometry y="112" width="231" height="26" as="geometry"/></mxCell><mxCell id="60" value="+ operator override !=(Point): boolean" style="text;strokeColor=none;fillColor=none;align=left;verticalAlign=top;spacingLeft=4;spacingRight=4;overflow=hidden;rotatable=0;points=[[0,0.5],[1,0.5]];portConstraint=eastwest;" vertex="1" parent="52"><mxGeometry y="138" width="231" height="26" as="geometry"/></mxCell><mxCell id="59" value="+ set_relative(Display, Display): void" style="text;strokeColor=none;fillColor=none;align=left;verticalAlign=top;spacingLeft=4;spacingRight=4;overflow=hidden;rotatable=0;points=[[0,0.5],[1,0.5]];portConstraint=eastwest;" vertex="1" parent="52"><mxGeometry y="164" width="231" height="26" as="geometry"/></mxCell><mxCell id="61" value="Display" style="swimlane;fontStyle=1;align=center;verticalAlign=top;childLayout=stackLayout;horizontal=1;startSize=26;horizontalStack=0;resizeParent=1;resizeParentMax=0;resizeLast=0;collapsible=1;marginBottom=0;" vertex="1" parent="1"><mxGeometry x="670" y="710" width="300" height="216" as="geometry"/></mxCell><mxCell id="62" value="+ width: int" style="text;strokeColor=none;fillColor=none;align=left;verticalAlign=top;spacingLeft=4;spacingRight=4;overflow=hidden;rotatable=0;points=[[0,0.5],[1,0.5]];portConstraint=eastwest;" vertex="1" parent="61"><mxGeometry y="26" width="300" height="26" as="geometry"/></mxCell><mxCell id="63" value="+ heigh: int" style="text;strokeColor=none;fillColor=none;align=left;verticalAlign=top;spacingLeft=4;spacingRight=4;overflow=hidden;rotatable=0;points=[[0,0.5],[1,0.5]];portConstraint=eastwest;" vertex="1" parent="61"><mxGeometry y="52" width="300" height="26" as="geometry"/></mxCell><mxCell id="64" value="" style="line;strokeWidth=1;fillColor=none;align=left;verticalAlign=middle;spacingTop=-1;spacingLeft=3;spacingRight=3;rotatable=0;labelPosition=right;points=[];portConstraint=eastwest;" vertex="1" parent="61"><mxGeometry y="78" width="300" height="8" as="geometry"/></mxCell><mxCell id="69" value="+ get_dimensions(void): int[2]" style="text;strokeColor=none;fillColor=none;align=left;verticalAlign=top;spacingLeft=4;spacingRight=4;overflow=hidden;rotatable=0;points=[[0,0.5],[1,0.5]];portConstraint=eastwest;" vertex="1" parent="61"><mxGeometry y="86" width="300" height="26" as="geometry"/></mxCell><mxCell id="65" value="- _current_display_dimensions(void): int[2]" style="text;strokeColor=none;fillColor=none;align=left;verticalAlign=top;spacingLeft=4;spacingRight=4;overflow=hidden;rotatable=0;points=[[0,0.5],[1,0.5]];portConstraint=eastwest;" vertex="1" parent="61"><mxGeometry y="112" width="300" height="26" as="geometry"/></mxCell><mxCell id="66" value="- _windows_current_display_dimensions(void): int[2]" style="text;strokeColor=none;fillColor=none;align=left;verticalAlign=top;spacingLeft=4;spacingRight=4;overflow=hidden;rotatable=0;points=[[0,0.5],[1,0.5]];portConstraint=eastwest;" vertex="1" parent="61"><mxGeometry y="138" width="300" height="26" as="geometry"/></mxCell><mxCell id="67" value="- _linux_current_display_dimensions(void): int[2]" style="text;strokeColor=none;fillColor=none;align=left;verticalAlign=top;spacingLeft=4;spacingRight=4;overflow=hidden;rotatable=0;points=[[0,0.5],[1,0.5]];portConstraint=eastwest;" vertex="1" parent="61"><mxGeometry y="164" width="300" height="26" as="geometry"/></mxCell><mxCell id="68" value="- _calculate_aspect_ratio(int, int): int[2]" style="text;strokeColor=none;fillColor=none;align=left;verticalAlign=top;spacingLeft=4;spacingRight=4;overflow=hidden;rotatable=0;points=[[0,0.5],[1,0.5]];portConstraint=eastwest;" vertex="1" parent="61"><mxGeometry y="190" width="300" height="26" as="geometry"/></mxCell><mxCell id="70" value="ClientConnectionHandler : Thread" style="swimlane;fontStyle=1;align=center;verticalAlign=top;childLayout=stackLayout;horizontal=1;startSize=26;horizontalStack=0;resizeParent=1;resizeParentMax=0;resizeLast=0;collapsible=1;marginBottom=0;" vertex="1" parent="1"><mxGeometry x="1040" y="200" width="290" height="216" as="geometry"/></mxCell><mxCell id="76" value="- _output_queue: OneWayChannel" style="text;strokeColor=none;fillColor=none;align=left;verticalAlign=top;spacingLeft=4;spacingRight=4;overflow=hidden;rotatable=0;points=[[0,0.5],[1,0.5]];portConstraint=eastwest;" vertex="1" parent="70"><mxGeometry y="26" width="290" height="26" as="geometry"/></mxCell><mxCell id="78" value="- _channel: TwoWayChannel" style="text;strokeColor=none;fillColor=none;align=left;verticalAlign=top;spacingLeft=4;spacingRight=4;overflow=hidden;rotatable=0;points=[[0,0.5],[1,0.5]];portConstraint=eastwest;" vertex="1" parent="70"><mxGeometry y="52" width="290" height="26" as="geometry"/></mxCell><mxCell id="77" value="- _operation_code: multiprocessing.Value" style="text;strokeColor=none;fillColor=none;align=left;verticalAlign=top;spacingLeft=4;spacingRight=4;overflow=hidden;rotatable=0;points=[[0,0.5],[1,0.5]];portConstraint=eastwest;" vertex="1" parent="70"><mxGeometry y="78" width="290" height="26" as="geometry"/></mxCell><mxCell id="106" value="- _address_list: Dict[Orientation : TwoWayChannel]" style="text;strokeColor=none;fillColor=none;align=left;verticalAlign=top;spacingLeft=4;spacingRight=4;overflow=hidden;rotatable=0;points=[[0,0.5],[1,0.5]];portConstraint=eastwest;" vertex="1" parent="70"><mxGeometry y="104" width="290" height="26" as="geometry"/></mxCell><mxCell id="87" value="- _children: Dict[Orientation : ClientConnection]" style="text;strokeColor=none;fillColor=none;align=left;verticalAlign=top;spacingLeft=4;spacingRight=4;overflow=hidden;rotatable=0;points=[[0,0.5],[1,0.5]];portConstraint=eastwest;" vertex="1" parent="70"><mxGeometry y="130" width="290" height="26" as="geometry"/></mxCell><mxCell id="73" value="" style="line;strokeWidth=1;fillColor=none;align=left;verticalAlign=middle;spacingTop=-1;spacingLeft=3;spacingRight=3;rotatable=0;labelPosition=right;points=[];portConstraint=eastwest;" vertex="1" parent="70"><mxGeometry y="156" width="290" height="8" as="geometry"/></mxCell><mxCell id="86" value="+ start(void): void" style="text;strokeColor=none;fillColor=none;align=left;verticalAlign=top;spacingLeft=4;spacingRight=4;overflow=hidden;rotatable=0;points=[[0,0.5],[1,0.5]];portConstraint=eastwest;" vertex="1" parent="70"><mxGeometry y="164" width="290" height="26" as="geometry"/></mxCell><mxCell id="74" value="+ add_client(void): void" style="text;strokeColor=none;fillColor=none;align=left;verticalAlign=top;spacingLeft=4;spacingRight=4;overflow=hidden;rotatable=0;points=[[0,0.5],[1,0.5]];portConstraint=eastwest;" vertex="1" parent="70"><mxGeometry y="190" width="290" height="26" as="geometry"/></mxCell><mxCell id="79" value="Orientation : IntEnum ( : Enum)" style="swimlane;fontStyle=1;align=center;verticalAlign=top;childLayout=stackLayout;horizontal=1;startSize=26;horizontalStack=0;resizeParent=1;resizeParentMax=0;resizeLast=0;collapsible=1;marginBottom=0;" vertex="1" parent="1"><mxGeometry x="1040" y="620" width="231" height="138" as="geometry"/></mxCell><mxCell id="80" value="+ RIGHT" style="text;strokeColor=none;fillColor=none;align=left;verticalAlign=top;spacingLeft=4;spacingRight=4;overflow=hidden;rotatable=0;points=[[0,0.5],[1,0.5]];portConstraint=eastwest;" vertex="1" parent="79"><mxGeometry y="26" width="231" height="26" as="geometry"/></mxCell><mxCell id="81" value="+ LEFT" style="text;strokeColor=none;fillColor=none;align=left;verticalAlign=top;spacingLeft=4;spacingRight=4;overflow=hidden;rotatable=0;points=[[0,0.5],[1,0.5]];portConstraint=eastwest;" vertex="1" parent="79"><mxGeometry y="52" width="231" height="26" as="geometry"/></mxCell><mxCell id="82" value="+ TOP" style="text;strokeColor=none;fillColor=none;align=left;verticalAlign=top;spacingLeft=4;spacingRight=4;overflow=hidden;rotatable=0;points=[[0,0.5],[1,0.5]];portConstraint=eastwest;" vertex="1" parent="79"><mxGeometry y="78" width="231" height="26" as="geometry"/></mxCell><mxCell id="85" value="+ BOTTOM" style="text;strokeColor=none;fillColor=none;align=left;verticalAlign=top;spacingLeft=4;spacingRight=4;overflow=hidden;rotatable=0;points=[[0,0.5],[1,0.5]];portConstraint=eastwest;" vertex="1" parent="79"><mxGeometry y="104" width="231" height="26" as="geometry"/></mxCell><mxCell id="83" value="" style="line;strokeWidth=1;fillColor=none;align=left;verticalAlign=middle;spacingTop=-1;spacingLeft=3;spacingRight=3;rotatable=0;labelPosition=right;points=[];portConstraint=eastwest;" vertex="1" parent="79"><mxGeometry y="130" width="231" height="8" as="geometry"/></mxCell><mxCell id="89" value="" style="html=1;endArrow=diamondThin;endFill=0;edgeStyle=elbowEdgeStyle;elbow=vertical;endSize=10;exitX=1.027;exitY=0.074;exitDx=0;exitDy=0;exitPerimeter=0;entryX=0.108;entryY=-0.008;entryDx=0;entryDy=0;entryPerimeter=0;" edge="1" parent="1" target="70"><mxGeometry width="160" relative="1" as="geometry"><mxPoint x="930" y="130.25599999999997" as="sourcePoint"/><mxPoint x="1080" y="200" as="targetPoint"/><Array as="points"><mxPoint x="1034.87" y="130.12"/><mxPoint x="1034.87" y="130.12"/><mxPoint x="944.8699999999999" y="132.12"/></Array></mxGeometry></mxCell><mxCell id="98" value="" style="html=1;endArrow=diamondThin;endFill=1;edgeStyle=elbowEdgeStyle;elbow=vertical;endSize=10;rounded=0;" edge="1" parent="1"><mxGeometry width="160" relative="1" as="geometry"><mxPoint x="700" y="30" as="sourcePoint"/><mxPoint x="814" y="30" as="targetPoint"/></mxGeometry></mxCell><mxCell id="99" value="יחס הכלה חזק&lt;br&gt;(compsition)" style="edgeLabel;html=1;align=center;verticalAlign=middle;resizable=0;points=[];" vertex="1" connectable="0" parent="98"><mxGeometry x="0.1194" relative="1" as="geometry"><mxPoint x="-11" as="offset"/></mxGeometry></mxCell><mxCell id="100" value="" style="html=1;endArrow=diamondThin;endFill=1;edgeStyle=elbowEdgeStyle;elbow=vertical;endSize=10;rounded=0;exitX=0.908;exitY=-0.007;exitDx=0;exitDy=0;exitPerimeter=0;" edge="1" parent="1" source="79" target="70"><mxGeometry width="160" relative="1" as="geometry"><mxPoint x="1200" y="100" as="sourcePoint"/><mxPoint x="1314" y="100" as="targetPoint"/><Array as="points"><mxPoint x="1250" y="460"/></Array></mxGeometry></mxCell><mxCell id="102" value="" style="html=1;endArrow=diamondThin;endFill=1;edgeStyle=elbowEdgeStyle;elbow=vertical;endSize=10;rounded=0;entryX=1.006;entryY=0.677;entryDx=0;entryDy=0;entryPerimeter=0;" edge="1" parent="1" target="36"><mxGeometry width="160" relative="1" as="geometry"><mxPoint x="1040" y="630" as="sourcePoint"/><mxPoint x="840" y="610" as="targetPoint"/><Array as="points"><mxPoint x="880" y="630"/><mxPoint x="920" y="620"/></Array></mxGeometry></mxCell><mxCell id="103" value="" style="html=1;endArrow=diamondThin;endFill=1;edgeStyle=elbowEdgeStyle;elbow=vertical;endSize=10;rounded=0;exitX=0.346;exitY=-0.001;exitDx=0;exitDy=0;exitPerimeter=0;entryX=0.986;entryY=0.981;entryDx=0;entryDy=0;entryPerimeter=0;" edge="1" parent="1" source="61" target="29"><mxGeometry width="160" relative="1" as="geometry"><mxPoint x="1030" y="610" as="sourcePoint"/><mxPoint x="814" y="680" as="targetPoint"/></mxGeometry></mxCell><mxCell id="107" value="ClientConnection : Thread" style="swimlane;fontStyle=1;align=center;verticalAlign=top;childLayout=stackLayout;horizontal=1;startSize=26;horizontalStack=0;resizeParent=1;resizeParentMax=0;resizeLast=0;collapsible=1;marginBottom=0;" vertex="1" parent="1"><mxGeometry x="1360" y="172" width="180" height="112" as="geometry"/></mxCell><mxCell id="108" value="- _socket: SecureSocket" style="text;strokeColor=none;fillColor=none;align=left;verticalAlign=top;spacingLeft=4;spacingRight=4;overflow=hidden;rotatable=0;points=[[0,0.5],[1,0.5]];portConstraint=eastwest;" vertex="1" parent="107"><mxGeometry y="26" width="180" height="26" as="geometry"/></mxCell><mxCell id="109" value="- _channel: TwoWayChannel" style="text;strokeColor=none;fillColor=none;align=left;verticalAlign=top;spacingLeft=4;spacingRight=4;overflow=hidden;rotatable=0;points=[[0,0.5],[1,0.5]];portConstraint=eastwest;" vertex="1" parent="107"><mxGeometry y="52" width="180" height="26" as="geometry"/></mxCell><mxCell id="113" value="" style="line;strokeWidth=1;fillColor=none;align=left;verticalAlign=middle;spacingTop=-1;spacingLeft=3;spacingRight=3;rotatable=0;labelPosition=right;points=[];portConstraint=eastwest;" vertex="1" parent="107"><mxGeometry y="78" width="180" height="8" as="geometry"/></mxCell><mxCell id="114" value="+ start(void): void" style="text;strokeColor=none;fillColor=none;align=left;verticalAlign=top;spacingLeft=4;spacingRight=4;overflow=hidden;rotatable=0;points=[[0,0.5],[1,0.5]];portConstraint=eastwest;" vertex="1" parent="107"><mxGeometry y="86" width="180" height="26" as="geometry"/></mxCell><mxCell id="116" value="" style="html=1;endArrow=diamondThin;endFill=1;edgeStyle=elbowEdgeStyle;elbow=vertical;endSize=10;rounded=0;exitX=-0.017;exitY=0.107;exitDx=0;exitDy=0;exitPerimeter=0;entryX=0.855;entryY=0;entryDx=0;entryDy=0;entryPerimeter=0;" edge="1" parent="1" source="107" target="70"><mxGeometry width="160" relative="1" as="geometry"><mxPoint x="1259.748" y="629.0340000000001" as="sourcePoint"/><mxPoint x="1260" y="426" as="targetPoint"/><Array as="points"><mxPoint x="1350" y="184"/></Array></mxGeometry></mxCell></root></mxGraphModel></diagram></mxfile>